<mxfile host="app.diagrams.net" agent="Mozilla/5.0 (Windows NT 10.0; Win64; x64; rv:135.0) Gecko/20100101 Firefox/135.0" version="26.0.14">
  <diagram id="C5RBs43oDa-KdzZeNtuy" name="Page-1">
    <mxGraphModel dx="1050" dy="530" grid="1" gridSize="10" guides="1" tooltips="1" connect="1" arrows="1" fold="1" page="1" pageScale="1" pageWidth="827" pageHeight="1169" math="0" shadow="0">
      <root>
        <mxCell id="WIyWlLk6GJQsqaUBKTNV-0" />
        <mxCell id="WIyWlLk6GJQsqaUBKTNV-1" parent="WIyWlLk6GJQsqaUBKTNV-0" />
        <mxCell id="PrCN0LPdpEUiVZ0P-GCg-2" value="" style="edgeStyle=orthogonalEdgeStyle;rounded=0;orthogonalLoop=1;jettySize=auto;html=1;" edge="1" parent="WIyWlLk6GJQsqaUBKTNV-1" source="WIyWlLk6GJQsqaUBKTNV-3" target="PrCN0LPdpEUiVZ0P-GCg-1">
          <mxGeometry relative="1" as="geometry" />
        </mxCell>
        <mxCell id="WIyWlLk6GJQsqaUBKTNV-3" value="MainJdbc" style="rounded=1;whiteSpace=wrap;html=1;fontSize=12;glass=0;strokeWidth=1;shadow=0;" parent="WIyWlLk6GJQsqaUBKTNV-1" vertex="1">
          <mxGeometry x="160" y="80" width="120" height="40" as="geometry" />
        </mxCell>
        <mxCell id="PrCN0LPdpEUiVZ0P-GCg-4" value="" style="edgeStyle=orthogonalEdgeStyle;rounded=0;orthogonalLoop=1;jettySize=auto;html=1;" edge="1" parent="WIyWlLk6GJQsqaUBKTNV-1" source="PrCN0LPdpEUiVZ0P-GCg-1" target="PrCN0LPdpEUiVZ0P-GCg-3">
          <mxGeometry relative="1" as="geometry" />
        </mxCell>
        <mxCell id="PrCN0LPdpEUiVZ0P-GCg-7" value="" style="edgeStyle=orthogonalEdgeStyle;rounded=0;orthogonalLoop=1;jettySize=auto;html=1;" edge="1" parent="WIyWlLk6GJQsqaUBKTNV-1" source="PrCN0LPdpEUiVZ0P-GCg-1" target="PrCN0LPdpEUiVZ0P-GCg-6">
          <mxGeometry relative="1" as="geometry" />
        </mxCell>
        <mxCell id="PrCN0LPdpEUiVZ0P-GCg-1" value="CityService" style="whiteSpace=wrap;html=1;rounded=1;glass=0;strokeWidth=1;shadow=0;" vertex="1" parent="WIyWlLk6GJQsqaUBKTNV-1">
          <mxGeometry x="360" y="70" width="120" height="60" as="geometry" />
        </mxCell>
        <mxCell id="PrCN0LPdpEUiVZ0P-GCg-3" value="CityDAO" style="whiteSpace=wrap;html=1;rounded=1;glass=0;strokeWidth=1;shadow=0;" vertex="1" parent="WIyWlLk6GJQsqaUBKTNV-1">
          <mxGeometry x="560" y="70" width="120" height="60" as="geometry" />
        </mxCell>
        <mxCell id="PrCN0LPdpEUiVZ0P-GCg-9" value="" style="edgeStyle=orthogonalEdgeStyle;rounded=0;orthogonalLoop=1;jettySize=auto;html=1;" edge="1" parent="WIyWlLk6GJQsqaUBKTNV-1" source="PrCN0LPdpEUiVZ0P-GCg-6" target="PrCN0LPdpEUiVZ0P-GCg-8">
          <mxGeometry relative="1" as="geometry" />
        </mxCell>
        <mxCell id="PrCN0LPdpEUiVZ0P-GCg-18" value="" style="edgeStyle=orthogonalEdgeStyle;rounded=0;orthogonalLoop=1;jettySize=auto;html=1;" edge="1" parent="WIyWlLk6GJQsqaUBKTNV-1" source="PrCN0LPdpEUiVZ0P-GCg-6" target="PrCN0LPdpEUiVZ0P-GCg-17">
          <mxGeometry relative="1" as="geometry" />
        </mxCell>
        <mxCell id="PrCN0LPdpEUiVZ0P-GCg-6" value="CountryService" style="whiteSpace=wrap;html=1;rounded=1;glass=0;strokeWidth=1;shadow=0;" vertex="1" parent="WIyWlLk6GJQsqaUBKTNV-1">
          <mxGeometry x="360" y="210" width="120" height="60" as="geometry" />
        </mxCell>
        <mxCell id="PrCN0LPdpEUiVZ0P-GCg-11" value="" style="edgeStyle=orthogonalEdgeStyle;rounded=0;orthogonalLoop=1;jettySize=auto;html=1;" edge="1" parent="WIyWlLk6GJQsqaUBKTNV-1" source="PrCN0LPdpEUiVZ0P-GCg-8" target="PrCN0LPdpEUiVZ0P-GCg-10">
          <mxGeometry relative="1" as="geometry" />
        </mxCell>
        <mxCell id="PrCN0LPdpEUiVZ0P-GCg-20" value="" style="edgeStyle=orthogonalEdgeStyle;rounded=0;orthogonalLoop=1;jettySize=auto;html=1;" edge="1" parent="WIyWlLk6GJQsqaUBKTNV-1" source="PrCN0LPdpEUiVZ0P-GCg-8" target="PrCN0LPdpEUiVZ0P-GCg-19">
          <mxGeometry relative="1" as="geometry" />
        </mxCell>
        <mxCell id="PrCN0LPdpEUiVZ0P-GCg-8" value="LanguageService" style="whiteSpace=wrap;html=1;rounded=1;glass=0;strokeWidth=1;shadow=0;" vertex="1" parent="WIyWlLk6GJQsqaUBKTNV-1">
          <mxGeometry x="360" y="350" width="120" height="60" as="geometry" />
        </mxCell>
        <mxCell id="PrCN0LPdpEUiVZ0P-GCg-13" value="" style="edgeStyle=orthogonalEdgeStyle;rounded=0;orthogonalLoop=1;jettySize=auto;html=1;" edge="1" parent="WIyWlLk6GJQsqaUBKTNV-1" source="PrCN0LPdpEUiVZ0P-GCg-10" target="PrCN0LPdpEUiVZ0P-GCg-12">
          <mxGeometry relative="1" as="geometry" />
        </mxCell>
        <mxCell id="PrCN0LPdpEUiVZ0P-GCg-10" value="City" style="whiteSpace=wrap;html=1;rounded=1;glass=0;strokeWidth=1;shadow=0;" vertex="1" parent="WIyWlLk6GJQsqaUBKTNV-1">
          <mxGeometry x="360" y="490" width="120" height="60" as="geometry" />
        </mxCell>
        <mxCell id="PrCN0LPdpEUiVZ0P-GCg-16" value="" style="edgeStyle=orthogonalEdgeStyle;rounded=0;orthogonalLoop=1;jettySize=auto;html=1;" edge="1" parent="WIyWlLk6GJQsqaUBKTNV-1" source="PrCN0LPdpEUiVZ0P-GCg-12" target="PrCN0LPdpEUiVZ0P-GCg-15">
          <mxGeometry relative="1" as="geometry" />
        </mxCell>
        <mxCell id="PrCN0LPdpEUiVZ0P-GCg-12" value="Country" style="whiteSpace=wrap;html=1;rounded=1;glass=0;strokeWidth=1;shadow=0;" vertex="1" parent="WIyWlLk6GJQsqaUBKTNV-1">
          <mxGeometry x="360" y="630" width="120" height="60" as="geometry" />
        </mxCell>
        <mxCell id="PrCN0LPdpEUiVZ0P-GCg-15" value="Language" style="whiteSpace=wrap;html=1;rounded=1;glass=0;strokeWidth=1;shadow=0;" vertex="1" parent="WIyWlLk6GJQsqaUBKTNV-1">
          <mxGeometry x="360" y="770" width="120" height="60" as="geometry" />
        </mxCell>
        <mxCell id="PrCN0LPdpEUiVZ0P-GCg-17" value="CountryDAO" style="whiteSpace=wrap;html=1;rounded=1;glass=0;strokeWidth=1;shadow=0;" vertex="1" parent="WIyWlLk6GJQsqaUBKTNV-1">
          <mxGeometry x="560" y="210" width="120" height="60" as="geometry" />
        </mxCell>
        <mxCell id="PrCN0LPdpEUiVZ0P-GCg-19" value="LanguageDAO" style="whiteSpace=wrap;html=1;rounded=1;glass=0;strokeWidth=1;shadow=0;" vertex="1" parent="WIyWlLk6GJQsqaUBKTNV-1">
          <mxGeometry x="560" y="350" width="120" height="60" as="geometry" />
        </mxCell>
      </root>
    </mxGraphModel>
  </diagram>
</mxfile>
